<mxfile host="Electron" agent="Mozilla/5.0 (Macintosh; Intel Mac OS X 10_15_7) AppleWebKit/537.36 (KHTML, like Gecko) draw.io/25.0.2 Chrome/128.0.6613.186 Electron/32.2.5 Safari/537.36" version="25.0.2">
  <diagram name="Page-1" id="62Ap8gMM-AS2bQelKV04">
    <mxGraphModel dx="1482" dy="878" grid="1" gridSize="10" guides="1" tooltips="1" connect="1" arrows="1" fold="1" page="1" pageScale="1" pageWidth="850" pageHeight="1100" math="0" shadow="0">
      <root>
        <mxCell id="0" />
        <mxCell id="1" parent="0" />
        <mxCell id="Bnmz9YBVFWV1SMw3msCD-3" style="edgeStyle=orthogonalEdgeStyle;rounded=0;orthogonalLoop=1;jettySize=auto;html=1;" edge="1" parent="1" source="Bnmz9YBVFWV1SMw3msCD-1" target="Bnmz9YBVFWV1SMw3msCD-4">
          <mxGeometry relative="1" as="geometry">
            <mxPoint x="380" y="456.45000000000005" as="targetPoint" />
            <Array as="points">
              <mxPoint x="206" y="630" />
            </Array>
          </mxGeometry>
        </mxCell>
        <mxCell id="Bnmz9YBVFWV1SMw3msCD-1" value="" style="points=[];aspect=fixed;html=1;align=center;shadow=0;dashed=0;fillColor=#FF6A00;strokeColor=none;shape=mxgraph.alibaba_cloud.prometheus;" vertex="1" parent="1">
          <mxGeometry x="178" y="430" width="92" height="87.06" as="geometry" />
        </mxCell>
        <mxCell id="Bnmz9YBVFWV1SMw3msCD-2" value="Kubernetes API" style="aspect=fixed;sketch=0;html=1;dashed=0;whitespace=wrap;verticalLabelPosition=bottom;verticalAlign=top;fillColor=#2875E2;strokeColor=#ffffff;points=[[0.005,0.63,0],[0.1,0.2,0],[0.9,0.2,0],[0.5,0,0],[0.995,0.63,0],[0.72,0.99,0],[0.5,1,0],[0.28,0.99,0]];shape=mxgraph.kubernetes.icon2;prIcon=api" vertex="1" parent="1">
          <mxGeometry x="90" y="260" width="50" height="48" as="geometry" />
        </mxCell>
        <mxCell id="Bnmz9YBVFWV1SMw3msCD-4" value="Grafana Telemetry / Dashboard" style="image;aspect=fixed;html=1;points=[];align=center;fontSize=12;image=img/lib/azure2/other/Grafana.svg;" vertex="1" parent="1">
          <mxGeometry x="600" y="580" width="68" height="52.800000000000004" as="geometry" />
        </mxCell>
        <mxCell id="Bnmz9YBVFWV1SMw3msCD-7" value="" style="points=[];aspect=fixed;html=1;align=center;shadow=0;dashed=0;fillColor=#FF6A00;strokeColor=none;shape=mxgraph.alibaba_cloud.prometheus;" vertex="1" parent="1">
          <mxGeometry x="600" y="285.1" width="55.9" height="52.9" as="geometry" />
        </mxCell>
        <mxCell id="Bnmz9YBVFWV1SMw3msCD-8" value="AlertManager" style="text;html=1;align=center;verticalAlign=middle;resizable=0;points=[];autosize=1;strokeColor=none;fillColor=none;" vertex="1" parent="1">
          <mxGeometry x="584" y="338" width="100" height="30" as="geometry" />
        </mxCell>
        <mxCell id="Bnmz9YBVFWV1SMw3msCD-10" value="Prometheus Operator" style="text;html=1;align=center;verticalAlign=middle;resizable=0;points=[];autosize=1;strokeColor=none;fillColor=none;" vertex="1" parent="1">
          <mxGeometry x="150" y="507" width="140" height="30" as="geometry" />
        </mxCell>
        <mxCell id="Bnmz9YBVFWV1SMw3msCD-11" value="" style="points=[];aspect=fixed;html=1;align=center;shadow=0;dashed=0;fillColor=#FF6A00;strokeColor=none;shape=mxgraph.alibaba_cloud.prometheus;" vertex="1" parent="1">
          <mxGeometry x="360" y="301" width="55.9" height="52.9" as="geometry" />
        </mxCell>
        <object placeholders="1" c4Name="prometheus operator" c4Type="SystemScopeBoundary" c4Application="Monitoring Namespace" label="&lt;font style=&quot;font-size: 16px&quot;&gt;&lt;b&gt;&lt;div style=&quot;text-align: left&quot;&gt;%c4Name%&lt;/div&gt;&lt;/b&gt;&lt;/font&gt;&lt;div style=&quot;text-align: left&quot;&gt;[%c4Application%]&lt;/div&gt;" id="Bnmz9YBVFWV1SMw3msCD-12">
          <mxCell style="rounded=1;fontSize=11;whiteSpace=wrap;html=1;dashed=1;arcSize=20;fillColor=none;strokeColor=#666666;fontColor=#333333;labelBackgroundColor=none;align=left;verticalAlign=bottom;labelBorderColor=none;spacingTop=0;spacing=10;dashPattern=8 4;metaEdit=1;rotatable=0;perimeter=rectanglePerimeter;noLabel=0;labelPadding=0;allowArrows=0;connectable=0;expand=0;recursiveResize=0;editable=1;pointerEvents=0;absoluteArcSize=1;points=[[0.25,0,0],[0.5,0,0],[0.75,0,0],[1,0.25,0],[1,0.5,0],[1,0.75,0],[0.75,1,0],[0.5,1,0],[0.25,1,0],[0,0.75,0],[0,0.5,0],[0,0.25,0]];" vertex="1" parent="1">
            <mxGeometry x="50" y="210" width="710" height="470" as="geometry" />
          </mxCell>
        </object>
        <mxCell id="Bnmz9YBVFWV1SMw3msCD-13" value="" style="points=[];aspect=fixed;html=1;align=center;shadow=0;dashed=0;fillColor=#FF6A00;strokeColor=none;shape=mxgraph.alibaba_cloud.prometheus;" vertex="1" parent="1">
          <mxGeometry x="360" y="380" width="55.9" height="52.9" as="geometry" />
        </mxCell>
        <mxCell id="Bnmz9YBVFWV1SMw3msCD-14" value="" style="points=[];aspect=fixed;html=1;align=center;shadow=0;dashed=0;fillColor=#FF6A00;strokeColor=none;shape=mxgraph.alibaba_cloud.prometheus;" vertex="1" parent="1">
          <mxGeometry x="360" y="558" width="55.9" height="52.9" as="geometry" />
        </mxCell>
        <mxCell id="Bnmz9YBVFWV1SMw3msCD-15" value="" style="points=[];aspect=fixed;html=1;align=center;shadow=0;dashed=0;fillColor=#FF6A00;strokeColor=none;shape=mxgraph.alibaba_cloud.prometheus;" vertex="1" parent="1">
          <mxGeometry x="362.05" y="478" width="55.9" height="52.9" as="geometry" />
        </mxCell>
        <mxCell id="Bnmz9YBVFWV1SMw3msCD-16" value="app-1" style="text;html=1;align=center;verticalAlign=middle;resizable=0;points=[];autosize=1;strokeColor=none;fillColor=none;" vertex="1" parent="1">
          <mxGeometry x="365" y="348" width="50" height="30" as="geometry" />
        </mxCell>
        <mxCell id="Bnmz9YBVFWV1SMw3msCD-17" value="app-2" style="text;html=1;align=center;verticalAlign=middle;resizable=0;points=[];autosize=1;strokeColor=none;fillColor=none;" vertex="1" parent="1">
          <mxGeometry x="365" y="430" width="50" height="30" as="geometry" />
        </mxCell>
        <mxCell id="Bnmz9YBVFWV1SMw3msCD-18" value="app-3" style="text;html=1;align=center;verticalAlign=middle;resizable=0;points=[];autosize=1;strokeColor=none;fillColor=none;" vertex="1" parent="1">
          <mxGeometry x="365" y="528" width="50" height="30" as="geometry" />
        </mxCell>
        <mxCell id="Bnmz9YBVFWV1SMw3msCD-19" value="app-4" style="text;html=1;align=center;verticalAlign=middle;resizable=0;points=[];autosize=1;strokeColor=none;fillColor=none;" vertex="1" parent="1">
          <mxGeometry x="365" y="607" width="50" height="30" as="geometry" />
        </mxCell>
        <mxCell id="Bnmz9YBVFWV1SMw3msCD-20" style="edgeStyle=orthogonalEdgeStyle;rounded=0;orthogonalLoop=1;jettySize=auto;html=1;entryX=-0.018;entryY=0.548;entryDx=0;entryDy=0;entryPerimeter=0;" edge="1" parent="1" source="Bnmz9YBVFWV1SMw3msCD-1" target="Bnmz9YBVFWV1SMw3msCD-11">
          <mxGeometry relative="1" as="geometry" />
        </mxCell>
        <mxCell id="Bnmz9YBVFWV1SMw3msCD-21" style="edgeStyle=orthogonalEdgeStyle;rounded=0;orthogonalLoop=1;jettySize=auto;html=1;entryX=0;entryY=0.586;entryDx=0;entryDy=0;entryPerimeter=0;" edge="1" parent="1" source="Bnmz9YBVFWV1SMw3msCD-1" target="Bnmz9YBVFWV1SMw3msCD-13">
          <mxGeometry relative="1" as="geometry" />
        </mxCell>
        <mxCell id="Bnmz9YBVFWV1SMw3msCD-22" style="edgeStyle=orthogonalEdgeStyle;rounded=0;orthogonalLoop=1;jettySize=auto;html=1;entryX=0.017;entryY=0.681;entryDx=0;entryDy=0;entryPerimeter=0;" edge="1" parent="1" source="Bnmz9YBVFWV1SMw3msCD-1" target="Bnmz9YBVFWV1SMw3msCD-15">
          <mxGeometry relative="1" as="geometry" />
        </mxCell>
        <mxCell id="Bnmz9YBVFWV1SMw3msCD-23" style="edgeStyle=orthogonalEdgeStyle;rounded=0;orthogonalLoop=1;jettySize=auto;html=1;entryX=0.018;entryY=0.586;entryDx=0;entryDy=0;entryPerimeter=0;" edge="1" parent="1" source="Bnmz9YBVFWV1SMw3msCD-1" target="Bnmz9YBVFWV1SMw3msCD-14">
          <mxGeometry relative="1" as="geometry" />
        </mxCell>
      </root>
    </mxGraphModel>
  </diagram>
</mxfile>
